<svg width="180" height="135" viewBox="0 0 180 135" fill="none" xmlns="http://www.w3.org/2000/svg">
<path d="M0 61.9583V73.0417C6.59201 73.0417 11.9359 78.3855 11.9359 84.9776V118.651C11.9359 127.128 18.8077 134 27.2845 134H35.8077V123.769H27.7083C24.6478 123.769 22.1667 121.288 22.1667 118.228V80.7147C22.1667 73.4164 16.2502 67.5 8.95192 67.5C16.2502 67.5 22.1667 61.5836 22.1667 54.2853V16.7724C22.1667 13.7119 24.6478 11.2308 27.7083 11.2308H35.8077V1H27.2845C18.8077 1 11.9359 7.87179 11.9359 16.3486V50.0224C11.9359 56.6145 6.59201 61.9583 0 61.9583Z" fill="#019301"/>
<path d="M179.82 72.0417V60.9583C173.228 60.9583 167.884 55.6145 167.884 49.0224V15.3486C167.884 6.8718 161.013 0 152.536 0H144.013V10.2308H152.112C155.173 10.2308 157.654 12.7119 157.654 15.7724V53.2853C157.654 60.5836 163.57 66.5 170.868 66.5C163.57 66.5 157.654 72.4164 157.654 79.7147V117.228C157.654 120.288 155.173 122.769 152.112 122.769H144.013V133H152.536C161.013 133 167.884 126.128 167.884 117.651V83.9776C167.884 77.3855 173.228 72.0417 179.82 72.0417Z" fill="#019301"/>
<path d="M123.995 17.3782C123.995 19.7156 123.14 21.8532 121.725 23.4954L121.89 23.5969L72.3964 104.329L72.4145 104.34L58.5303 112.018C57.3761 112.656 55.9652 111.798 56.0007 110.48L56.429 94.5353L105.94 13.775L105.952 13.7825C107.363 10.3874 110.711 8 114.616 8C119.796 8 123.995 12.1988 123.995 17.3782Z" fill="#EFE603"/>
<rect x="56" y="124" width="68.2051" height="10.2308" fill="#019301"/>
</svg>
