<svg width="293" height="170" viewBox="0 0 293 170" fill="none" xmlns="http://www.w3.org/2000/svg">
<path d="M292.463 133.757C292.231 131.547 292.037 129.061 291.596 126.896C291.211 125.007 290.058 123.192 288.62 121.961C285.883 119.62 282.852 119.679 279.308 119.563C278.053 119.522 276.824 119.394 275.57 119.356C270.547 119.201 265.597 119.027 260.568 119.004L256.016 119H248.244C247.234 119.02 246.231 119.082 245.225 119.084C242.679 119.089 240.262 119.191 237.724 119.302C236.484 119.356 235.217 119.317 233.982 119.42C232.72 119.526 231.495 119.577 230.231 119.613C227.809 119.682 226.037 119.858 223.912 121.127C222.325 122.075 221.016 123.685 220.287 125.402C218.87 128.736 218.323 142.777 218.548 147.346C218.764 151.754 218.935 157.452 219.824 161.764C220.703 166.032 224.128 168.674 228.37 168.988C236.3 169.574 243.036 169.561 250.895 169.789C250.992 169.792 251.089 169.795 251.186 169.797H259.48C260.474 169.778 261.46 169.719 262.455 169.709C263.769 169.694 265.079 169.733 266.394 169.708C270.107 169.638 273.829 169.435 277.527 169.259C278.794 169.198 280.031 169.194 281.301 169.09C283.79 168.885 285.381 168.971 287.591 167.546C291.631 164.942 291.909 161.12 292.316 156.493C292.535 154.004 292.736 151.571 292.871 149.073C293.139 144.13 292.981 138.683 292.463 133.757ZM240.331 131.731L235.048 131.783V160.125L230.452 160.209C230.252 159.478 230.37 147.798 230.37 145.996V131.783L225.336 131.728C225.278 131.555 225.282 131.64 225.282 131.447V127.242L240.332 127.294V131.731H240.331ZM253.513 160.125H249.246V157.519C249 157.59 248.221 158.673 247.926 158.857L246.938 159.607C246.805 159.726 245.612 160.296 245.425 160.335C244.566 160.515 244.407 160.622 243.509 160.453C242.267 160.219 241.525 159.409 241.355 158.119C241.045 155.756 241.121 156.266 241.121 153.818V135.736H245.306L245.305 154.324C245.304 154.566 245.328 154.745 245.341 154.955C245.39 155.785 245.472 157.019 247.098 156.495C247.568 156.344 249.177 154.979 249.249 154.424L249.246 135.736H253.513V160.125ZM270.009 153.902L269.82 156.653C269.646 157.716 269.568 157.981 269.091 158.933C268.08 160.945 265.232 161.007 263.184 159.294L261.638 157.855V160.126L257.37 160.209C257.578 159.478 257.452 145.711 257.452 143.726C257.452 142.67 257.389 127.833 257.452 127.242H261.638V138.007C262.101 137.845 263.019 136.215 264.992 135.556C266.679 134.994 268.114 135.583 269.107 136.996C269.728 137.88 269.932 139.537 269.925 140.616C269.921 141.136 270.013 141.508 270.009 142.043V153.902H270.009ZM278.81 156.236C279.445 156.78 282.145 157.242 282.152 153.9L282.236 151.799H286.504C286.504 152.881 286.531 155.083 286.23 156.06C284.148 162.805 274.371 161.631 273.763 154.764C273.544 152.291 273.537 153.029 273.537 150.37V145.745C273.537 142.001 273.428 137.578 277.386 135.897C280.776 134.456 285.062 135.9 286.063 139.888C286.7 142.425 286.483 145.877 286.452 148.608C285.99 148.836 278.932 148.688 277.805 148.688V152.978C277.805 154.295 277.831 155.397 278.81 156.236Z" fill="#E5E5E5"/>
<path d="M179.079 160.293C179.079 156.046 178.998 151.131 179.074 146.917C179.084 146.362 180.23 142.96 180.439 142.176L184.78 127.138L179.818 127.073C179.807 127.091 179.794 127.099 179.79 127.129L179.17 129.353C179.069 129.951 178.416 132.231 178.361 132.561C178.244 133.258 177.029 137.81 176.764 138.914L176.617 139.772C176.45 139.504 174.338 131.204 174.05 130.293C173.796 129.49 173.525 127.847 173.17 127.073H168C167.998 127.98 170.403 134.089 170.73 135.462C171.048 136.798 171.746 138.268 172.096 139.612L173.322 143.991C173.541 144.753 173.692 145.452 173.849 146.227C174.221 148.077 173.828 158.98 173.992 160.04C174.067 160.525 174.57 160.381 174.976 160.378C175.898 160.372 178.516 160.455 179.079 160.293Z" fill="#E5E5E5"/>
<path d="M209.362 157.855L209.412 160.327L213.825 160.326C213.973 159.807 213.885 138.912 213.876 135.817H209.355C209.356 135.972 209.361 136.231 209.362 136.661C209.372 142.689 209.342 148.524 209.443 154.574C209.052 155.177 208.249 155.751 207.721 156.088C207.401 156.292 206.799 156.502 206.429 156.408C205.932 156.283 205.879 155.84 205.759 155.407C205.543 154.628 205.657 138.753 205.668 135.817H201.142C201.138 135.873 201.147 135.925 201.145 135.979C201.084 137.622 201.156 139.451 201.156 141.118L201.154 156.51C201.148 157.632 201.516 159.6 202.562 160.198C203.219 160.572 203.645 160.73 204.525 160.719C205.214 160.71 205.938 160.518 206.546 160.183C208.419 159.151 208.759 158.251 209.362 157.855Z" fill="#E5E5E5"/>
<path d="M189.255 154.154C189.211 153.875 189.255 144.204 189.255 143.642C189.255 142.373 189.113 140.307 190.386 139.586C190.955 139.265 191.896 139.378 192.396 139.835C192.877 140.273 193.07 141.095 193.177 141.725C193.249 142.156 193.195 151.528 193.195 152.22C193.195 153.465 193.345 155.601 192.033 156.244C190.455 157.019 189.48 155.565 189.255 154.154ZM189.994 135.315C183.599 136.511 184.659 143.716 184.659 149.276C184.659 151.842 184.465 155.593 185.836 157.826C187.334 160.267 189.772 160.916 192.428 160.601C194.795 160.322 196.806 158.322 197.361 155.986C198.037 153.135 197.79 149.63 197.79 146.669C197.79 144.061 198.026 140.375 196.628 138.104C195.211 135.802 192.56 134.836 189.994 135.315Z" fill="#E5E5E5"/>
<path d="M263.198 139.353C261.111 139.982 261.638 140.865 261.638 143.137V153.902C261.638 154.34 261.617 154.825 261.632 155.255C261.66 156.087 263.414 156.766 264.333 156.579C265.891 156.26 265.824 153.942 265.824 152.725C265.824 150.931 265.824 149.137 265.824 147.342C265.824 145.594 265.896 143.684 265.827 141.957C265.763 140.359 264.989 138.812 263.198 139.353Z" fill="#E5E5E5"/>
<path d="M277.865 145.094H282.177C282.259 144.879 282.64 141.012 281.522 139.832C281.051 139.336 280.747 139.265 280.019 139.266C277.926 139.268 277.805 141.385 277.805 143.052C277.805 143.574 277.703 144.669 277.865 145.094Z" fill="#E5E5E5"/>
<path d="M177.637 67.3077C175.225 68.3174 172.573 71.17 171.735 74.7507C170.675 79.2875 175.089 81.206 175.451 80.5769C175.877 79.8378 174.66 79.5878 174.409 77.2339C174.086 74.1936 175.499 70.7965 177.278 69.3059C177.608 69.029 177.593 69.4144 177.593 70.1274C177.593 71.4023 177.522 82.8475 177.522 85.2362C177.522 88.4683 177.389 89.4889 177.149 90.4974C176.906 91.5195 176.516 92.21 176.811 92.4761C177.142 92.7736 178.554 92.0658 179.371 90.9252C180.351 89.5572 180.694 87.9143 180.756 86.1301C180.83 83.9793 180.827 80.5665 180.83 78.6198C180.833 76.8345 180.86 71.6065 180.799 68.4636C180.784 67.6928 178.646 66.884 177.637 67.3067L177.637 67.3077ZM263.296 82.4337C263.218 84.114 262.846 85.4274 262.384 86.3538C261.491 88.1472 259.636 88.7041 258.849 86.126C258.42 84.7206 258.4 82.3735 258.708 80.4124C259.022 78.4146 259.899 76.9057 261.351 77.0418C262.783 77.1763 263.453 79.0216 263.296 82.4336V82.4337ZM239.154 92.8587C239.134 95.6506 238.695 98.0985 237.752 98.8095C236.416 99.8177 234.62 99.0614 234.992 97.0242C235.321 95.2213 236.877 93.3802 239.157 91.1306C239.157 91.1306 239.162 91.6437 239.154 92.8587H239.154ZM238.789 82.4174C238.707 83.9479 238.31 85.4853 237.877 86.354C236.984 88.1474 235.116 88.7081 234.342 86.1262C233.813 84.3621 233.939 82.0789 234.201 80.6403C234.541 78.7738 235.365 77.0422 236.844 77.0422C238.282 77.0422 238.991 78.6201 238.789 82.4176V82.4174ZM224.803 82.394C224.715 84.0149 224.399 85.3699 223.892 86.354C222.974 88.1351 221.157 88.7 220.356 86.1262C219.779 84.2703 219.975 81.7397 220.216 80.3727C220.572 78.3441 221.465 76.9059 222.858 77.0422C224.29 77.1821 224.986 79.0218 224.803 82.3942V82.394ZM288.896 84.2873C288.546 84.2873 288.386 84.648 288.254 85.2551C287.796 87.3662 287.314 87.8429 286.693 87.8429C285.999 87.8429 285.376 86.7976 285.215 84.705C285.089 83.0596 285.11 80.0303 285.271 77.017C285.304 76.3979 285.133 75.7853 283.472 75.1821C282.758 74.9226 281.719 74.5405 281.202 75.7889C279.741 79.3158 279.169 82.1159 279.034 83.2533C279.027 83.3122 278.955 83.3242 278.943 83.1867C278.857 82.2756 278.665 80.6201 278.641 77.1418C278.637 76.4632 278.493 75.8855 277.744 75.4126C277.258 75.1057 275.782 74.563 275.251 75.2087C274.79 75.7367 274.257 77.1579 273.703 78.8425C273.253 80.2117 272.939 81.1379 272.939 81.1379C272.939 81.1379 272.945 77.4435 272.95 76.0422C272.953 75.5136 272.59 75.3374 272.481 75.3055C271.989 75.1626 271.019 74.924 270.607 74.924C270.099 74.924 269.975 75.2079 269.975 75.6215C269.975 75.6756 269.895 80.4854 269.895 83.8487C269.895 83.9947 269.895 84.1541 269.896 84.3234C269.615 85.8692 268.705 87.9676 267.714 87.9676C266.722 87.9676 266.254 87.0903 266.254 83.0808C266.254 80.7418 266.324 79.7247 266.359 78.033C266.379 77.0586 266.417 76.3103 266.415 76.1405C266.408 75.6198 265.508 75.3573 265.089 75.2603C264.668 75.1625 264.302 75.1246 264.016 75.1409C263.612 75.1637 263.326 75.4289 263.326 75.7937C263.326 75.9893 263.328 76.3613 263.328 76.3613C262.807 75.543 261.97 74.9735 261.413 74.8084C259.912 74.3627 258.345 74.7576 257.164 76.4107C256.225 77.7241 255.659 79.2117 255.437 81.349C255.274 82.9115 255.327 84.496 255.616 85.836C255.267 87.3481 254.617 87.9676 253.906 87.9676C252.874 87.9676 252.126 86.2829 252.213 83.3693C252.27 81.4529 252.654 80.108 253.073 78.1623C253.251 77.3329 253.106 76.8987 252.742 76.4825C252.408 76.1008 251.696 75.9058 250.673 76.1457C249.944 76.3167 248.902 76.5005 247.949 76.6418C247.949 76.6418 248.006 76.4123 248.053 76.0076C248.301 73.8854 245.995 74.0576 245.26 74.7354C244.82 75.1401 244.521 75.6174 244.408 76.4756C244.228 77.8374 245.339 78.4797 245.339 78.4797C244.974 80.1479 244.081 82.327 243.159 83.9025C242.665 84.7466 242.287 85.3721 241.799 86.037C241.797 85.7894 241.796 85.5419 241.795 85.2954C241.784 81.7884 241.831 79.0282 241.851 78.0333C241.871 77.0589 241.91 76.3305 241.908 76.1607C241.903 75.7798 241.68 75.636 241.218 75.4539C240.809 75.2928 240.325 75.1813 239.823 75.1424C239.19 75.093 238.809 75.4289 238.818 75.826C238.82 75.901 238.82 76.3614 238.82 76.3614C238.3 75.5431 237.462 74.9736 236.905 74.8085C235.404 74.363 233.838 74.758 232.656 76.4108C231.718 77.7243 231.103 79.5674 230.929 81.3329C230.767 82.9784 230.797 84.3767 231.018 85.5547C230.779 86.7342 230.093 87.9677 229.317 87.9677C228.325 87.9677 227.761 87.0905 227.761 83.081C227.761 80.7419 227.831 79.7249 227.866 78.0333C227.886 77.0589 227.924 76.3105 227.922 76.1408C227.915 75.6201 227.014 75.3577 226.595 75.2605C226.157 75.1591 225.778 75.1218 225.488 75.1432C225.104 75.1718 224.835 75.5152 224.835 75.7713V76.3614C224.314 75.5431 223.476 74.9736 222.919 74.8085C221.418 74.363 219.861 74.7643 218.671 76.4108C217.895 77.4844 217.267 78.6747 216.943 81.3095C216.85 82.0709 216.809 82.7839 216.814 83.4503C216.504 85.3429 215.138 87.5242 214.02 87.5242C213.365 87.5242 212.742 86.2552 212.742 83.5507C212.742 79.9482 212.965 74.8191 213.003 74.3247C213.003 74.3247 214.416 74.3007 214.689 74.2975C215.394 74.2898 216.032 74.3065 216.97 74.2585C217.441 74.2345 217.895 72.5451 217.409 72.336C217.189 72.2414 215.632 72.1585 215.015 72.1454C214.497 72.1336 213.053 72.0267 213.053 72.0267C213.053 72.0267 213.182 68.6222 213.212 68.2626C213.238 67.9628 212.85 67.8085 212.628 67.7149C212.087 67.4862 211.603 67.3766 211.029 67.2584C210.237 67.095 209.878 67.2548 209.807 67.9236C209.702 68.9385 209.647 71.9111 209.647 71.9111C209.066 71.9111 207.079 71.7974 206.498 71.7974C205.957 71.7974 205.374 74.1214 206.121 74.1499C206.981 74.1833 208.479 74.212 209.472 74.242C209.472 74.242 209.428 79.4557 209.428 81.0653C209.428 81.2365 209.429 81.4014 209.429 81.5615C208.883 84.4101 206.958 85.9489 206.958 85.9489C207.371 84.0644 206.527 82.6491 205.006 81.4512C204.445 81.0097 203.339 80.174 202.101 79.2581C202.101 79.2581 202.818 78.5515 203.454 77.13C203.904 76.123 203.924 74.9707 202.818 74.7166C200.991 74.2964 199.484 75.6382 199.035 77.0707C198.687 78.1804 198.873 79.0038 199.555 79.8592C199.604 79.9217 199.658 79.9856 199.714 80.0498C199.302 80.8448 198.735 81.915 198.255 82.745C196.923 85.0493 195.917 86.8719 195.157 86.8719C194.549 86.8719 194.557 85.0215 194.557 83.2889C194.557 81.7953 194.668 79.5497 194.756 77.2248C194.785 76.4559 194.4 76.0179 193.756 75.6211C193.364 75.3801 192.528 74.9062 192.044 74.9062C191.32 74.9062 189.23 75.0048 187.255 80.7178C187.006 81.4378 186.517 82.7499 186.517 82.7499L186.559 75.8798C186.559 75.7187 186.473 75.563 186.277 75.4565C185.944 75.2758 185.055 74.9062 184.265 74.9062C183.888 74.9062 183.7 75.0814 183.7 75.4305L183.631 86.1788C183.631 86.9955 183.652 87.9482 183.733 88.3649C183.814 88.7821 183.944 89.1215 184.105 89.3235C184.267 89.525 184.453 89.6788 184.76 89.7422C185.046 89.8011 186.613 90.0023 186.694 89.4036C186.792 88.6861 186.796 87.9101 187.618 85.0158C188.899 80.5097 190.569 78.3111 191.354 77.5303C191.491 77.3938 191.648 77.3857 191.64 77.609C191.607 78.597 191.489 81.0655 191.41 83.1627C191.197 88.7752 192.218 89.8154 193.677 89.8154C194.793 89.8154 196.367 88.7063 198.053 85.8987C199.105 84.1491 200.126 82.4335 200.86 81.197C201.371 81.6703 201.945 82.1796 202.518 82.7238C203.85 83.9882 204.288 85.1898 203.997 86.3296C203.775 87.201 202.939 88.099 201.452 87.2262C201.018 86.9715 200.833 86.7748 200.397 86.4877C200.163 86.3335 199.805 86.2874 199.591 86.4489C199.033 86.8689 198.715 87.4031 198.533 88.0645C198.356 88.7081 199.001 89.0483 199.669 89.3458C200.244 89.6019 201.48 89.834 202.269 89.8604C205.341 89.9632 207.803 88.377 209.516 84.2853C209.823 87.819 211.128 89.8186 213.396 89.8186C214.912 89.8186 216.432 87.8588 217.097 85.9308C217.288 86.7167 217.57 87.4001 217.935 87.9781C219.682 90.7468 223.072 90.1509 224.775 87.7998C225.302 87.0733 225.382 86.8122 225.382 86.8122C225.63 89.0322 227.418 89.8079 228.442 89.8079C229.588 89.8079 230.772 89.2659 231.601 87.3982C231.699 87.6009 231.805 87.7945 231.921 87.978C233.668 90.7467 237.058 90.1508 238.761 87.7997C238.841 87.6894 238.911 87.5894 238.972 87.4996L239.022 88.9578C239.022 88.9578 238.05 89.8489 237.454 90.3956C234.83 92.8035 232.834 94.6303 232.687 96.7577C232.499 99.4703 234.699 100.478 236.363 100.611C238.131 100.751 239.644 99.7744 240.574 98.408C241.393 97.2052 241.928 94.6166 241.889 92.06C241.873 91.0362 241.848 89.7344 241.827 88.3391C242.75 87.2678 243.789 85.9139 244.746 84.3291C245.789 82.602 246.907 80.2827 247.479 78.4777C247.479 78.4777 248.45 78.486 249.486 78.4182C249.818 78.3965 249.913 78.4642 249.852 78.7072C249.778 79.0008 248.542 83.7653 249.67 86.9393C250.441 89.1121 252.181 89.8112 253.212 89.8112C254.42 89.8112 255.575 88.8995 256.194 87.5456C256.268 87.6965 256.346 87.8426 256.431 87.9774C258.179 90.7461 261.557 90.1466 263.272 87.7991C263.659 87.2695 263.878 86.8116 263.878 86.8116C264.246 89.1092 266.033 89.8189 267.056 89.8189C268.122 89.8189 269.134 89.3819 269.955 87.4396C269.989 88.2948 270.043 88.9941 270.129 89.2145C270.18 89.3494 270.483 89.5186 270.704 89.6004C271.679 89.962 272.674 89.791 273.042 89.7166C273.297 89.665 273.495 89.4605 273.523 88.9324C273.594 87.5458 273.55 85.216 273.97 83.4846C274.676 80.5788 275.334 79.4517 275.647 78.8937C275.821 78.581 276.018 78.5294 276.026 78.8603C276.04 79.5298 276.074 81.4959 276.347 84.1375C276.548 86.0803 276.816 87.2286 277.022 87.592C277.61 88.6313 278.337 88.6805 278.928 88.6805C279.305 88.6805 280.091 88.5765 280.021 87.9151C279.987 87.5928 280.047 85.6005 280.743 82.7377C281.197 80.8683 281.954 79.1791 282.227 78.5616C282.328 78.3338 282.375 78.5134 282.373 78.5483C282.316 79.8358 282.187 84.0469 282.711 86.35C283.422 89.47 285.479 89.8192 286.196 89.8192C287.726 89.8192 288.977 88.6553 289.399 85.5928C289.5 84.8558 289.35 84.2867 288.899 84.2867" fill="#E5E5E5"/>
<path d="M105.184 14.5324H94.632C94.3605 14.5324 94.1397 14.7531 94.1397 15.0267V20.1847C94.1397 20.4583 94.3605 20.6779 94.632 20.6779H98.7497V27.0898C98.7497 27.0898 97.8245 27.3986 95.2714 27.3986C92.2561 27.3986 88.0451 26.294 88.0451 17.0377C88.0451 7.77747 92.4291 6.55896 96.5469 6.55896C100.111 6.55896 101.645 7.18482 102.623 7.48834C102.93 7.58474 103.209 7.27697 103.209 7.00245L104.389 2.01839C104.389 1.89098 104.343 1.73762 104.202 1.63401C103.804 1.35429 101.384 0 95.2713 0C88.2253 0 81 2.99661 81 17.4036C81 31.8085 89.2718 33.9534 96.2432 33.9534C102.014 33.9534 105.52 31.4894 105.52 31.4894C105.663 31.4106 105.678 31.2096 105.678 31.1184V15.0267C105.676 14.7552 105.454 14.5324 105.184 14.5324ZM158.549 1.23099H152.612C152.339 1.23099 152.119 1.45168 152.119 1.72524V13.2061H142.86V1.72524C142.86 1.45168 142.638 1.23099 142.371 1.23099H136.427C136.16 1.23099 135.942 1.45168 135.942 1.72524V32.8115C135.942 33.0872 136.162 33.3068 136.427 33.3068H142.371C142.642 33.3068 142.86 33.0851 142.86 32.8115V19.5174H152.119L152.098 32.8136C152.098 33.0893 152.318 33.3068 152.583 33.3068H158.529C158.802 33.3068 159.016 33.0851 159.016 32.8136L159.037 1.72519C159.041 1.45168 158.819 1.23099 158.549 1.23099ZM112.282 1.93556C110.166 1.93556 108.45 3.66701 108.45 5.80358C108.45 7.9412 110.166 9.67269 112.282 9.67269C114.398 9.67269 116.112 7.94125 116.112 5.80358C116.112 3.66706 114.398 1.93556 112.282 1.93556ZM115.691 11.9067C115.691 11.6352 115.471 11.4104 115.204 11.4104H109.279C109.002 11.4104 108.765 11.6901 108.765 11.9647C108.765 11.9647 108.765 29.2326 108.765 32.5235C108.765 33.1244 109.14 33.3068 109.627 33.3068C109.627 33.3068 112.152 33.3068 114.964 33.3068C115.546 33.3068 115.699 33.0208 115.699 32.511C115.695 31.4085 115.695 27.0939 115.695 26.2567C115.691 25.4609 115.691 11.9067 115.691 11.9067ZM181.546 11.457H175.653C175.383 11.457 175.168 11.6798 175.168 11.9533V27.1934C175.168 27.1934 173.669 28.2959 171.539 28.2959C169.415 28.2959 168.847 27.3323 168.847 25.2454C168.847 23.1648 168.847 11.9513 168.847 11.9513C168.847 11.6777 168.625 11.4549 168.36 11.4549H162.381C162.108 11.4549 161.892 11.6777 161.892 11.9513C161.892 11.9513 161.892 20.0687 161.892 26.2505C161.892 32.4323 165.338 33.9472 170.074 33.9472C173.961 33.9472 177.101 31.7982 177.101 31.7982C177.101 31.7982 177.248 32.9256 177.323 33.0602C177.385 33.1949 177.561 33.3297 177.754 33.3297H181.542C181.812 33.3297 182.031 33.1079 182.031 32.8343L182.048 11.9513C182.035 11.6798 181.816 11.457 181.546 11.457ZM197.69 10.7565C194.341 10.7565 192.063 12.2507 192.063 12.2507V1.72524C192.063 1.45168 191.842 1.23099 191.576 1.23099H185.614C185.347 1.23099 185.127 1.45168 185.127 1.72524L185.111 32.8136C185.111 33.0893 185.332 33.3068 185.602 33.3068C185.602 33.3068 189.749 33.3068 189.753 33.3068C189.937 33.3068 190.076 33.2115 190.182 33.0457C190.285 32.8778 190.433 31.6117 190.433 31.6117C190.433 31.6117 192.863 33.9203 197.479 33.9203C202.896 33.9203 206 31.1723 206 21.5857C206 12.0114 201.039 10.7565 197.69 10.7565ZM195.365 28.2752C193.321 28.213 191.937 27.2846 191.937 27.2846V17.4368C191.937 17.4368 193.307 16.5964 194.986 16.4482C197.11 16.2597 199.161 16.9 199.161 21.967C199.151 27.3053 198.227 28.3601 195.365 28.2752ZM132.854 28.1633C132.593 28.1633 131.926 28.2669 131.242 28.2669C129.058 28.2669 128.312 27.2493 128.312 25.9334C128.312 24.6112 128.312 17.1891 128.312 17.1891H132.771C133.045 17.1891 133.261 16.9684 133.261 16.6928V11.9025C133.265 11.6269 133.045 11.4062 132.771 11.4062H128.312L128.306 5.5197C128.306 5.29691 128.187 5.18608 127.93 5.18608H121.861C121.626 5.18608 121.496 5.29069 121.496 5.51765V11.601C121.496 11.601 118.452 12.3357 118.246 12.3968C118.043 12.4549 117.894 12.6455 117.894 12.8704V16.6948C117.894 16.9684 118.116 17.1912 118.383 17.1912H121.496C121.496 17.1912 121.496 21.1877 121.496 26.3893C121.496 33.2198 126.289 33.8912 129.522 33.8912C130.998 33.8912 132.763 33.4105 133.059 33.3068C133.238 33.2447 133.339 33.0602 133.339 32.8633L133.341 28.6585C133.341 28.3829 133.111 28.1591 132.854 28.1633Z" fill="#E5E5E5"/>
<path d="M1.26299 127.612C0.133126 128.741 0 129.955 0 140.024C0 149.571 0.19969 151.567 1.32956 154.083C3.65756 159.29 5.78587 160.68 11.9046 160.941C18.0898 161.288 19.887 160.159 19.4876 155.994C19.2214 153.043 16.8934 151.569 12.2374 151.569C7.98075 151.569 6.9823 150.614 6.9823 146.623V143.759H12.5036C18.4892 143.759 19.6208 143.064 19.6208 139.418C19.6208 135.772 18.4892 135.077 12.5036 135.077H6.9823V132.213C6.9823 127.351 3.98867 125.009 1.26299 127.612Z" fill="#E5E5E5"/>
<path d="M56.1856 127.877C54.7229 128.919 54.5898 133.257 55.9193 134.647C58.9795 137.945 63.3027 132.478 60.6419 128.658C59.3106 126.747 57.9145 126.489 56.1856 127.877Z" fill="#E5E5E5"/>
<path d="M65.8718 128.214C63.4106 130.557 64.0097 149.826 66.7371 156.075C69.7973 163.019 80.8382 163.712 80.8382 157.031C80.8382 154.253 79.3756 152.864 75.8494 152.345C73.8542 152.084 72.5895 151.389 72.1919 150.434C71.6594 149.044 71.9922 148.784 75.3852 148.265C79.7749 147.57 80.84 146.704 80.84 143.837C80.84 140.973 78.4454 139.151 74.7213 139.151H71.5279V134.552C71.5262 128.04 68.9985 125.176 65.8718 128.214Z" fill="#E5E5E5"/>
<path d="M84.9637 128.161C84.1649 128.943 83.6341 130.852 83.4344 133.629C82.9685 139.704 84.2998 152.811 85.7624 156.02C88.9558 163.312 99.8636 163.92 99.8636 156.802C99.8636 154.285 98.4009 153.069 94.7416 152.377C92.1474 151.856 91.4818 151.421 91.3503 149.86C91.1506 148.21 91.4835 148.038 94.5437 148.038C98.4009 147.951 99.8653 146.822 99.8653 143.958C99.8653 140.834 97.8036 139.185 94.0129 139.185H90.5533V134.586C90.5499 128.074 88.0239 125.21 84.9637 128.161Z" fill="#E5E5E5"/>
<path d="M22.7596 138.156C22.2271 139.025 22.0274 141.802 22.1605 146.749C22.4268 153.085 22.6265 154.388 24.0892 156.383C27.2159 160.897 31.5391 162.198 34.997 159.855C36.7259 158.639 37.1919 158.639 39.7861 159.942C44.5753 162.285 49.431 160.029 51.6924 154.214C52.8888 151.089 53.022 139.372 51.8921 137.896C50.6291 136.245 48.2345 136.68 47.103 138.764C46.4373 140.067 46.0379 142.671 46.0379 146.143C46.0379 151.263 45.9048 151.61 44.3756 152.131C41.6482 153 40.718 151.263 40.718 145.014C40.718 139.285 39.7196 136.856 37.3916 136.856C35.0636 136.856 34.0651 139.285 34.0651 145.014C34.0651 150.481 33.3329 152.479 31.3377 152.479C29.4757 152.479 28.5438 150.049 28.3441 144.582C28.2775 141.718 27.8116 138.853 27.4122 138.159C26.3506 136.506 23.8229 136.506 22.7596 138.156Z" fill="#E5E5E5"/>
<path d="M107.662 138.174C100.545 142.254 100.611 155.011 107.795 159.612C110.189 161.088 111.521 161.347 114.182 161.002C119.437 160.133 122.429 156.748 120.833 153.449C120.3 152.32 120.433 151.625 121.43 150.585C123.092 148.674 123.026 146.505 121.164 142.946C118.436 137.566 112.517 135.481 107.662 138.174ZM115.045 144.768C115.311 145.289 114.246 145.637 112.384 145.637C110.522 145.637 109.457 145.289 109.723 144.768C109.923 144.247 111.12 143.9 112.384 143.9C113.647 143.902 114.845 144.249 115.045 144.768ZM116.708 152.668C114.513 153.884 110.787 153.884 109.857 152.668C109.324 151.973 110.389 151.712 113.78 151.799C117.571 151.799 118.104 151.973 116.708 152.668Z" fill="#E5E5E5"/>
<path d="M130.114 138.404C126.189 141.529 125.458 143.351 125.192 150.816C124.992 156.457 125.192 158.021 126.124 159.408C127.52 161.404 128.452 161.493 130.181 159.843C131.179 158.887 131.51 157.239 131.777 152.206L132.109 145.87L136.1 145.435C138.295 145.175 140.49 144.654 140.955 144.306C141.954 143.438 142.019 139.186 140.955 137.796C139.692 136.148 132.442 136.496 130.114 138.404Z" fill="#E5E5E5"/>
<path d="M56.5651 140.143C55.3021 141.359 55.1689 142.226 55.1689 150.992C55.1689 160.279 55.2355 160.539 56.8313 161.495C58.0943 162.274 58.7599 162.19 60.1578 160.974C61.7536 159.586 61.8201 159.152 61.8201 151.081C61.8201 142.402 61.3542 140.404 59.0928 139.364C58.4937 139.103 57.3621 139.448 56.5651 140.143Z" fill="#E5E5E5"/>
<path d="M82.3188 73H73.0579V87H82.3188M117.304 73H108.043V87H117.304M114.217 80H108.043M79.2318 80H73.0579M125.536 87V73L131.196 80L136.855 87V73M22.6376 83.7L33.9565 91M22.6376 83.7V76.3M22.6376 83.7L33.9565 76.3M33.9565 91L45.2753 83.7M33.9565 91V83.7M45.2753 83.7V76.3M45.2753 83.7L33.9565 76.3M45.2753 76.3L33.9565 69M45.2753 76.3L33.9565 83.6L22.6376 76.3M33.9565 69L22.6376 76.3M33.9565 69V76.3M15.4347 75C14.0971 73.7 12.3478 73 10.2898 73C6.17387 73 3.08691 76 3.08691 80C3.08691 84 6.17387 87 10.2898 87C12.3478 87 14.0971 86.2 15.4347 85M90.5507 81H96.7246C98.9884 81 100.841 79.2 100.841 77C100.841 74.8 98.9884 73 96.7246 73H90.5507V87V81ZM65.855 80C65.855 84 62.7681 87 58.6521 87H53.5072V73H58.6521C62.7681 73 65.855 76 65.855 80Z" stroke="#E5E5E5" stroke-width="2.3" stroke-linecap="round" stroke-linejoin="round"/>
</svg>
