<svg width="807" height="212" viewBox="0 0 807 212" fill="none" xmlns="http://www.w3.org/2000/svg">
<mask id="path-1-outside-1" maskUnits="userSpaceOnUse" x="0.928932" y="0.714258" width="211.425" height="211.425" fill="black">
<rect fill="white" x="0.928932" y="0.714258" width="211.425" height="211.425"/>
<path d="M155.795 57.0151C146.101 47.3208 133.728 40.7409 120.24 38.1075C106.753 35.4741 92.7566 36.9054 80.0219 42.2204C67.2872 47.5355 56.3859 56.4955 48.6964 67.9675C41.0069 79.4395 36.8747 92.9082 36.8222 106.67C36.7697 120.433 40.7994 133.87 48.4017 145.284C56.0039 156.698 66.8373 165.575 79.5318 170.793C92.2264 176.011 106.212 177.336 119.72 174.599C133.228 171.863 145.652 165.189 155.42 155.42L106.405 106.405L155.795 57.0151Z"/>
</mask>
<path d="M155.795 57.0151C146.101 47.3208 133.728 40.7409 120.24 38.1075C106.753 35.4741 92.7566 36.9054 80.0219 42.2204C67.2872 47.5355 56.3859 56.4955 48.6964 67.9675C41.0069 79.4395 36.8747 92.9082 36.8222 106.67C36.7697 120.433 40.7994 133.87 48.4017 145.284C56.0039 156.698 66.8373 165.575 79.5318 170.793C92.2264 176.011 106.212 177.336 119.72 174.599C133.228 171.863 145.652 165.189 155.42 155.42L106.405 106.405L155.795 57.0151Z" stroke="#EFE603" stroke-width="10" mask="url(#path-1-outside-1)"/>
<path d="M240.975 125.674C240.975 123.648 240.657 121.841 240.021 120.253C239.426 118.625 238.572 117.175 237.46 115.904C236.388 114.633 235.137 113.521 233.707 112.568C232.277 111.576 230.748 110.702 229.12 109.947C227.492 109.193 225.824 108.518 224.116 107.922C222.409 107.326 220.76 106.77 219.172 106.254C217.146 105.618 215.081 104.924 212.977 104.169C210.911 103.375 208.886 102.481 206.9 101.488C204.954 100.456 203.108 99.304 201.36 98.0332C199.653 96.7227 198.144 95.2533 196.833 93.625C195.562 91.9967 194.549 90.1898 193.795 88.2041C193.08 86.1787 192.723 83.9349 192.723 81.4727C192.723 77.8587 193.517 74.6618 195.105 71.8818C196.734 69.1019 198.839 66.7588 201.42 64.8525C204.001 62.9463 206.9 61.5166 210.117 60.5635C213.374 59.5706 216.65 59.0742 219.946 59.0742C223.64 59.0742 227.154 59.6898 230.49 60.9209C233.826 62.1123 236.745 63.8001 239.247 65.9844C241.789 68.1686 243.814 70.8294 245.323 73.9668C246.832 77.0645 247.646 80.5195 247.766 84.332H240.558C240.24 81.5124 239.545 78.9508 238.473 76.6475C237.4 74.3044 235.971 72.2988 234.184 70.6309C232.396 68.9629 230.292 67.6722 227.869 66.7588C225.486 65.8057 222.845 65.3291 219.946 65.3291C217.524 65.3291 215.121 65.6667 212.738 66.3418C210.395 66.9772 208.271 67.9701 206.364 69.3203C204.498 70.6309 202.969 72.2988 201.777 74.3242C200.626 76.3099 200.05 78.653 200.05 81.3535C200.05 84.2526 200.725 86.7148 202.075 88.7402C203.465 90.7656 205.213 92.4733 207.317 93.8633C209.422 95.2533 211.726 96.4248 214.228 97.3779C216.769 98.2913 219.172 99.0856 221.436 99.7607C223.54 100.396 225.665 101.131 227.81 101.965C229.954 102.759 232.019 103.692 234.005 104.765C236.03 105.837 237.917 107.048 239.664 108.398C241.411 109.709 242.921 111.218 244.191 112.926C245.502 114.633 246.515 116.54 247.229 118.645C247.984 120.71 248.361 123.013 248.361 125.555C248.361 129.367 247.527 132.683 245.859 135.503C244.231 138.323 242.106 140.686 239.485 142.592C236.864 144.458 233.886 145.868 230.55 146.821C227.214 147.735 223.838 148.191 220.423 148.191C216.61 148.191 212.917 147.635 209.343 146.523C205.769 145.411 202.572 143.783 199.752 141.639C196.972 139.494 194.708 136.853 192.961 133.716C191.214 130.539 190.28 126.925 190.161 122.874H197.369C197.727 125.972 198.541 128.732 199.812 131.154C201.122 133.537 202.79 135.543 204.815 137.171C206.841 138.759 209.184 139.971 211.845 140.805C214.506 141.599 217.365 141.996 220.423 141.996C222.965 141.996 225.447 141.678 227.869 141.043C230.331 140.408 232.535 139.435 234.481 138.124C236.427 136.774 237.996 135.086 239.188 133.061C240.379 130.995 240.975 128.533 240.975 125.674ZM271.491 82.5449L272.027 94.6377C274.291 90.6266 277.309 87.4297 281.082 85.0469C284.855 82.6243 289.144 81.3932 293.949 81.3535C301.018 81.3535 306.419 83.4782 310.152 87.7275C313.885 91.9372 315.772 97.9339 315.812 105.718V147H308.663V105.837C308.623 99.9196 307.273 95.3923 304.612 92.2549C301.952 89.0778 297.821 87.5091 292.222 87.5488C289.918 87.5488 287.714 87.9261 285.609 88.6807C283.544 89.4352 281.638 90.4678 279.891 91.7783C278.183 93.0889 276.654 94.6377 275.304 96.4248C273.993 98.2119 272.921 100.158 272.087 102.263V147H264.939V82.5449H271.491ZM338.048 82.5449H367.952V140.686H389.874V147H338.048V140.686H360.804V88.9189H338.048V82.5449ZM358.719 64.9121C358.719 63.4427 359.136 62.1719 359.97 61.0996C360.804 60.0273 362.194 59.4912 364.14 59.4912C366.046 59.4912 367.416 60.0273 368.25 61.0996C369.124 62.1719 369.561 63.4427 369.561 64.9121C369.561 66.3021 369.124 67.5332 368.25 68.6055C367.416 69.638 366.046 70.1543 364.14 70.1543C362.194 70.1543 360.804 69.638 359.97 68.6055C359.136 67.5332 358.719 66.3021 358.719 64.9121ZM458.116 115.428C458.116 119.598 457.599 123.668 456.567 127.64C455.574 131.571 454.025 135.066 451.92 138.124C449.855 141.142 447.234 143.585 444.057 145.451C440.88 147.278 437.107 148.191 432.739 148.191C428.728 148.191 425.054 147.417 421.718 145.868C418.382 144.319 415.582 142.076 413.319 139.137V171.781H406.17V82.5449H412.842L413.14 91.3613C415.404 88.1842 418.184 85.722 421.48 83.9746C424.776 82.2272 428.489 81.3535 432.619 81.3535C437.028 81.3535 440.84 82.2669 444.057 84.0938C447.274 85.8809 449.915 88.3034 451.98 91.3613C454.045 94.3796 455.574 97.8743 456.567 101.846C457.599 105.777 458.116 109.888 458.116 114.177V115.428ZM450.967 114.177C450.967 110.96 450.61 107.763 449.895 104.586C449.18 101.409 448.028 98.5693 446.44 96.0674C444.851 93.5257 442.786 91.4805 440.244 89.9316C437.742 88.3431 434.665 87.5488 431.011 87.5488C428.946 87.5488 427 87.8467 425.173 88.4424C423.386 88.9984 421.738 89.8125 420.229 90.8848C418.759 91.9173 417.429 93.1683 416.238 94.6377C415.086 96.0674 414.113 97.6559 413.319 99.4033V131.333C414.987 134.669 417.369 137.31 420.467 139.256C423.565 141.202 427.119 142.175 431.13 142.175C434.744 142.175 437.802 141.381 440.304 139.792C442.846 138.203 444.891 136.158 446.44 133.656C448.028 131.115 449.18 128.255 449.895 125.078C450.61 121.861 450.967 118.645 450.967 115.428V114.177Z" fill="#019301"/>
<path d="M532.431 115.487C532.431 120.253 531.875 124.641 530.763 128.652C529.69 132.624 528.082 136.059 525.938 138.958C523.793 141.857 521.152 144.121 518.015 145.749C514.877 147.377 511.263 148.191 507.173 148.191C503.241 148.191 499.826 147.496 496.927 146.106C494.067 144.716 491.605 142.711 489.54 140.09L488.885 147H475.958V55.5H490.195V88.6807C492.221 86.3376 494.604 84.5306 497.344 83.2598C500.084 81.9889 503.321 81.3535 507.054 81.3535C511.184 81.3535 514.818 82.1676 517.955 83.7959C521.132 85.3844 523.793 87.6283 525.938 90.5273C528.082 93.4264 529.69 96.9014 530.763 100.952C531.875 104.963 532.431 109.391 532.431 114.236V115.487ZM518.193 114.236C518.193 111.377 517.935 108.676 517.419 106.135C516.942 103.553 516.128 101.29 514.977 99.3438C513.865 97.3978 512.355 95.8688 510.449 94.7568C508.543 93.6051 506.2 93.0293 503.42 93.0293C500.044 93.0293 497.284 93.8037 495.14 95.3525C492.995 96.9014 491.347 98.9268 490.195 101.429V128.057C491.347 130.559 492.995 132.604 495.14 134.192C497.324 135.781 500.124 136.575 503.539 136.575C506.24 136.575 508.523 136.039 510.39 134.967C512.256 133.855 513.765 132.346 514.917 130.439C516.069 128.533 516.903 126.309 517.419 123.768C517.935 121.186 518.193 118.426 518.193 115.487V114.236ZM573.386 121.206L575.829 128.95L593.938 82.5449H609.724L577.08 156.77C576.365 158.398 575.432 160.145 574.28 162.012C573.128 163.918 571.699 165.685 569.991 167.313C568.323 168.942 566.317 170.292 563.974 171.364C561.631 172.476 558.891 173.032 555.754 173.032C554.443 173.032 553.113 172.913 551.762 172.675C550.452 172.476 549.28 172.238 548.248 171.96L550.273 160.88C550.551 160.88 550.928 160.88 551.405 160.88C551.882 160.92 552.378 160.959 552.894 160.999C553.411 161.039 553.887 161.059 554.324 161.059C554.801 161.098 555.178 161.118 555.456 161.118C556.846 161.118 558.077 160.701 559.149 159.867C560.261 159.073 561.234 158.14 562.068 157.067C562.902 156.035 563.577 155.002 564.094 153.97C564.649 152.977 565.047 152.302 565.285 151.944L569.514 143.962L542.112 82.5449H557.839L573.386 121.206ZM648.416 66.9375V82.5449H672.781V93.1484H648.416V124.065C648.416 126.488 648.694 128.493 649.25 130.082C649.846 131.671 650.66 132.941 651.693 133.895C652.725 134.848 653.937 135.523 655.327 135.92C656.717 136.277 658.246 136.456 659.914 136.456C661.145 136.456 662.415 136.396 663.726 136.277C665.076 136.118 666.367 135.96 667.598 135.801C668.869 135.602 670.021 135.404 671.053 135.205C672.125 134.967 673.019 134.748 673.734 134.55L675.342 144.379C674.31 144.975 673.059 145.531 671.589 146.047C670.16 146.523 668.591 146.921 666.883 147.238C665.176 147.556 663.388 147.794 661.522 147.953C659.695 148.152 657.888 148.251 656.101 148.251C652.884 148.251 649.926 147.814 647.225 146.94C644.564 146.027 642.261 144.637 640.315 142.771C638.409 140.864 636.9 138.442 635.788 135.503C634.715 132.524 634.179 128.97 634.179 124.84V93.1484H618.453V82.5449H634.179V66.9375H648.416ZM721.957 148.191C717.192 148.191 712.843 147.397 708.911 145.809C704.98 144.22 701.604 142.036 698.784 139.256C696.004 136.476 693.84 133.2 692.291 129.427C690.742 125.614 689.968 121.504 689.968 117.096V114.653C689.968 109.53 690.782 104.924 692.41 100.833C694.078 96.7425 696.282 93.2477 699.023 90.3486C701.803 87.4495 705.019 85.2256 708.673 83.6768C712.366 82.1279 716.238 81.3535 720.289 81.3535C724.975 81.3535 729.106 82.1478 732.68 83.7363C736.254 85.2852 739.233 87.4893 741.615 90.3486C744.038 93.1683 745.865 96.5241 747.096 100.416C748.327 104.308 748.943 108.577 748.943 113.224V119.24H704.265C704.503 121.742 705.119 124.065 706.112 126.21C707.104 128.354 708.395 130.221 709.984 131.81C711.612 133.358 713.498 134.59 715.643 135.503C717.827 136.377 720.21 136.813 722.791 136.813C726.405 136.813 729.721 136.099 732.739 134.669C735.797 133.239 738.279 131.273 740.186 128.771L747.93 136.039C746.897 137.588 745.567 139.097 743.939 140.566C742.31 141.996 740.404 143.287 738.22 144.438C736.036 145.55 733.573 146.444 730.833 147.119C728.133 147.834 725.174 148.191 721.957 148.191ZM720.23 92.8506C718.244 92.8506 716.397 93.208 714.69 93.9229C712.982 94.6377 711.453 95.6901 710.103 97.0801C708.752 98.4303 707.601 100.098 706.648 102.084C705.734 104.03 705.079 106.254 704.682 108.756H734.884V107.684C734.765 105.777 734.388 103.951 733.752 102.203C733.156 100.416 732.263 98.8275 731.071 97.4375C729.88 96.0475 728.371 94.9355 726.544 94.1016C724.757 93.2676 722.652 92.8506 720.23 92.8506ZM762.577 87.7871C762.577 86.3971 762.795 85.0866 763.232 83.8555C763.709 82.6243 764.384 81.5719 765.258 80.6982C766.131 79.7848 767.204 79.07 768.474 78.5537C769.785 78.0374 771.274 77.7793 772.942 77.7793C774.61 77.7793 776.08 78.0374 777.35 78.5537C778.661 79.07 779.753 79.7848 780.627 80.6982C781.54 81.5719 782.215 82.6243 782.652 83.8555C783.129 85.0866 783.367 86.3971 783.367 87.7871C783.367 89.1771 783.129 90.4678 782.652 91.6592C782.215 92.8109 781.54 93.8236 780.627 94.6973C779.753 95.571 778.661 96.266 777.35 96.7822C776.08 97.2588 774.61 97.4971 772.942 97.4971C771.274 97.4971 769.785 97.2588 768.474 96.7822C767.204 96.266 766.131 95.571 765.258 94.6973C764.384 93.8236 763.709 92.8109 763.232 91.6592C762.795 90.4678 762.577 89.1771 762.577 87.7871ZM779.495 145.034C779.495 147.139 779.217 149.303 778.661 151.527C778.145 153.751 777.37 155.936 776.338 158.08C775.345 160.225 774.134 162.25 772.704 164.156C771.314 166.102 769.765 167.83 768.057 169.339L760.016 165.109C761.723 162.25 763.034 159.232 763.947 156.055C764.861 152.917 765.317 149.403 765.317 145.511V133.061H779.555L779.495 145.034Z" fill="#E7E7E7"/>
</svg>
